<svg width="60" height="60" viewBox="0 0 60 60" fill="none" xmlns="http://www.w3.org/2000/svg">
<g id="icon/bg">
<circle id="ellipse" cx="30" cy="30" r="30" fill="white" fill-opacity="0.06"/>
<g id="icon">
<path id="Vector" d="M31.4303 32.9975H22.4003C20.5803 32.9975 19.4203 31.0475 20.3003 29.4475L22.6303 25.2075L24.8103 21.2375C25.7203 19.5875 28.1003 19.5875 29.0103 21.2375L31.2003 25.2075L32.2503 27.1175L33.5303 29.4475C34.4103 31.0475 33.2503 32.9975 31.4303 32.9975Z" fill="#FAFF1C"/>
<path id="Vector_2" opacity="0.4" d="M40.0003 33.4976C40.0003 37.0876 37.0903 39.9976 33.5003 39.9976C29.9103 39.9976 27.0003 37.0876 27.0003 33.4976C27.0003 33.3276 27.0103 33.1676 27.0203 32.9976H31.4303C33.2503 32.9976 34.4103 31.0476 33.5303 29.4476L32.2503 27.1176C32.6503 27.0376 33.0703 26.9976 33.5003 26.9976C37.0903 26.9976 40.0003 29.9076 40.0003 33.4976Z" fill="#FAFF1C"/>
</g>
</g>
</svg>
