<svg width="70" height="70" viewBox="0 0 70 70" fill="none" xmlns="http://www.w3.org/2000/svg">
<g id="icon/bg">
<circle id="ellipse" cx="35" cy="35" r="35" fill="#FAFF1C"/>
<g id="icon">
<path id="Vector" d="M36.4303 37.9975H27.4003C25.5803 37.9975 24.4203 36.0475 25.3003 34.4475L27.6303 30.2075L29.8103 26.2375C30.7203 24.5875 33.1003 24.5875 34.0103 26.2375L36.2003 30.2075L37.2503 32.1175L38.5303 34.4475C39.4103 36.0475 38.2503 37.9975 36.4303 37.9975Z" fill="#141820"/>
<path id="Vector_2" opacity="0.4" d="M45.0003 38.4976C45.0003 42.0876 42.0903 44.9976 38.5003 44.9976C34.9103 44.9976 32.0003 42.0876 32.0003 38.4976C32.0003 38.3276 32.0103 38.1676 32.0203 37.9976H36.4303C38.2503 37.9976 39.4103 36.0476 38.5303 34.4476L37.2503 32.1176C37.6503 32.0376 38.0703 31.9976 38.5003 31.9976C42.0903 31.9976 45.0003 34.9076 45.0003 38.4976Z" fill="#141820"/>
</g>
</g>
</svg>
