<svg width="50" height="50" viewBox="0 0 50 50" fill="none" xmlns="http://www.w3.org/2000/svg">
<g id="icon/bg">
<circle id="ellipse" cx="25" cy="25" r="25" fill="white" fill-opacity="0.06"/>
<g id="icon">
<path id="Vector" opacity="0.3" d="M30 34H20C17 34 15 32.5 15 29V22C15 18.5 17 17 20 17H30C33 17 35 18.5 35 22V29C35 32.5 33 34 30 34Z" fill="white"/>
<path id="Vector_2" d="M25 26.37C24.16 26.37 23.31 26.11 22.66 25.58L19.53 23.08C19.21 22.82 19.15 22.35 19.41 22.03C19.67 21.71 20.14 21.65 20.46 21.91L23.59 24.41C24.35 25.02 25.64 25.02 26.4 24.41L29.53 21.91C29.85 21.65 30.33 21.7 30.58 22.03C30.84 22.35 30.79 22.83 30.46 23.08L27.33 25.58C26.69 26.11 25.84 26.37 25 26.37Z" fill="white"/>
</g>
</g>
</svg>
