<svg width="120" height="120" viewBox="0 0 120 120" fill="none" xmlns="http://www.w3.org/2000/svg">
<g id="text">
<path id="Vector" d="M10.9365 74.2026L10.8139 73.7821C10.7526 73.577 10.6812 73.3823 10.6097 73.1977C10.3681 72.574 9.95339 72.033 9.41476 71.6389C8.88069 71.2673 8.26309 71.0347 7.61734 70.9621C6.93101 70.8887 6.23701 70.9515 5.57476 71.1467C4.88877 71.3215 4.2457 71.6356 3.68534 72.0697C3.16603 72.4648 2.75205 72.9826 2.48022 73.5771C2.21489 74.1898 2.13328 74.8669 2.24535 75.5255C2.27597 75.7333 2.32033 75.9388 2.37812 76.1408C2.37812 76.3561 2.4598 76.4894 2.48022 76.5612L3.24619 79.3197L11.7433 76.9612L10.9365 74.2026ZM9.29221 74.2026C9.35349 74.3769 9.39434 74.5205 9.42498 74.6334L9.73136 75.7613L4.25726 77.279L3.94066 76.151C3.94066 76.0382 3.8794 75.8946 3.82833 75.71C3.78781 75.545 3.76047 75.377 3.74661 75.2075C3.7175 74.8469 3.80721 74.4866 4.00194 74.1821C4.21703 73.8587 4.49922 73.5859 4.82918 73.3823C5.18975 73.1543 5.58216 72.9815 5.99346 72.8696C6.39185 72.7562 6.8051 72.7043 7.21902 72.7157C7.6062 72.7208 7.98831 72.8045 8.34242 72.9618C8.6774 73.1233 8.94758 73.3946 9.10838 73.7309C9.18406 73.8786 9.2456 74.033 9.29221 74.1923V74.2026Z" fill="white"/>
<path id="Vector_2" d="M9.45301 67.0899L0.735596 68.4622L0.99343 70.1135L9.71085 68.7412L9.45301 67.0899Z" fill="white"/>
<path id="Vector_3" d="M2.20449 65.794C2.9898 66.1587 3.85338 66.3208 4.71688 66.2656C5.39018 66.2521 6.05508 66.113 6.67774 65.8554C7.21254 65.6142 7.69226 65.2651 8.08713 64.83C8.45233 64.4326 8.73372 63.9652 8.91437 63.4559C9.09761 62.9436 9.1775 62.3997 9.14931 61.8561C9.14037 61.0805 8.92143 60.322 8.51605 59.6617C8.1294 59.0503 7.57656 58.5628 6.92284 58.2568C6.21656 57.9311 5.44187 57.7833 4.66583 57.8261H4.43089H4.14496L4.26751 61.0153H5.55435V59.6104C5.96334 59.6709 6.35591 59.814 6.70841 60.0309C7.00466 60.2122 7.24229 60.4757 7.39266 60.7897C7.55148 61.1077 7.63201 61.4594 7.62753 61.8152C7.66288 62.3091 7.54898 62.8024 7.30071 63.2303C7.05425 63.6189 6.69895 63.9257 6.27942 64.1122C5.77951 64.3299 5.2413 64.4449 4.69644 64.4505C4.14906 64.4816 3.60095 64.405 3.08284 64.225C2.64766 64.0784 2.26674 63.8031 1.99006 63.4353C1.71714 63.0224 1.57473 62.5363 1.58152 62.0407C1.54389 61.5366 1.69304 61.0363 2.00028 60.6358C2.31112 60.2452 2.73058 59.956 3.20539 59.8052L2.89896 58.103C2.02951 58.3015 1.25439 58.7938 0.703222 59.4976C0.169181 60.2968 -0.0726015 61.2571 0.0189758 62.2151C0.0444489 62.9402 0.255459 63.6466 0.631725 64.266C1.00448 64.9121 1.54907 65.4412 2.20449 65.794Z" fill="white"/>
<path id="Vector_4" d="M0.295722 54.4233L0.160767 56.0894L8.95568 56.8076L9.09063 55.1416L0.295722 54.4233Z" fill="white"/>
<path id="Vector_5" d="M2.48018 50.1966L9.62921 51.5297L9.93559 49.8787L2.78657 48.5559L3.29721 45.8076L1.76528 45.5205L0.447815 52.6577L1.97975 52.9449L2.48018 50.1966Z" fill="white"/>
<path id="Vector_6" d="M10.8958 45.7871L9.33322 44.6591L10.3545 41.5006H12.2745L12.826 39.8599L3.6344 39.6035L2.83777 41.9724L10.3341 47.3662L10.8958 45.7871ZM8.00549 43.7362L4.71697 41.3776L8.80213 41.4801L8.00549 43.7362Z" fill="white"/>
<path id="Vector_7" d="M15.7367 34.2505L14.3375 33.5532L12.6422 36.968L6.13657 33.707L5.40125 35.2042L13.2856 39.1625L15.7367 34.2505Z" fill="white"/>
<path id="Vector_8" d="M17.5647 31.3998L16.4107 29.8513L18.3817 27.1646L20.1996 27.8004L21.2209 26.4057L12.5195 23.3293L11.0489 25.3803L16.5638 32.8046L17.5647 31.3998ZM16.8396 26.6211L15.4404 28.5387L13.02 25.288L16.8396 26.6211Z" fill="white"/>
<path id="Vector_9" d="M25.4592 21.668C25.6578 20.978 25.6578 20.2455 25.4592 19.5555C25.2226 18.8054 24.8051 18.1256 24.2439 17.5764L24.0805 17.4226L23.866 17.2278L21.6089 19.4735L22.5179 20.3862L23.5392 19.3607C23.7771 19.702 23.9407 20.0899 24.0192 20.499C24.0828 20.8428 24.051 21.1975 23.9273 21.5244C23.7949 21.8542 23.5887 22.1489 23.3247 22.3858C22.9797 22.7419 22.5402 22.9911 22.0583 23.1037C21.6094 23.1863 21.1462 23.129 20.7306 22.9396C20.2321 22.7184 19.7838 22.3973 19.4132 21.9961C19.0198 21.6129 18.7042 21.1567 18.4838 20.6528C18.3033 20.2296 18.25 19.7626 18.3306 19.3094C18.4452 18.8283 18.7057 18.3948 19.0762 18.0686C19.4206 17.697 19.89 17.4668 20.3936 17.4226C20.8887 17.3882 21.3829 17.5025 21.8132 17.7508L22.8345 16.3766C22.102 15.8705 21.2189 15.6318 20.3323 15.6999C19.3843 15.8419 18.5145 16.3093 17.871 17.0226C17.3426 17.5353 16.9585 18.1793 16.7578 18.889C16.5538 19.6027 16.5538 20.3596 16.7578 21.0733C17.0168 21.9008 17.4807 22.6488 18.1059 23.2473C18.5755 23.7359 19.1291 24.1353 19.74 24.4265C20.259 24.6678 20.8226 24.7971 21.3945 24.8059C21.9343 24.8131 22.4697 24.7084 22.9673 24.4983C23.4644 24.2776 23.9177 23.9684 24.3052 23.5856C24.8501 23.0586 25.248 22.3975 25.4592 21.668Z" fill="white"/>
<path id="Vector_10" d="M32.4448 16.7151L31.5358 15.4435L28.2166 17.8534L26.8889 16.0178L29.6056 14.0387L28.6966 12.7671L25.98 14.7462L24.8668 13.208L28.186 10.7982L27.2668 9.53687L22.6097 12.9312L27.7775 20.1094L32.4448 16.7151Z" fill="white"/>
<path id="Vector_11" d="M34.8245 15.3411L32.1283 10.0907L38.2356 13.5773L39.7369 12.7979L35.6926 4.92236L34.1913 5.70172L36.8875 10.9521L30.7802 7.46552L29.2789 8.24487L33.3232 16.1204L34.8245 15.3411Z" fill="white"/>
<path id="Vector_12" d="M42.2186 11.4648C42.9999 11.6346 43.8126 11.5849 44.5676 11.3213C45.4445 11.0684 46.2176 10.54 46.7736 9.81373C47.2761 9.11637 47.5411 8.27486 47.5293 7.41418L45.7931 7.48603C45.8064 7.99848 45.664 8.50275 45.3846 8.93185C45.0649 9.36556 44.6073 9.67667 44.0876 9.81373C43.6259 9.98334 43.1238 10.0084 42.6476 9.88558C42.2048 9.75926 41.8121 9.49764 41.5241 9.13701C41.1758 8.71468 40.9154 8.22649 40.7582 7.70134C40.5826 7.18037 40.5098 6.63009 40.5437 6.08115C40.5691 5.62079 40.7369 5.17975 41.0237 4.81972C41.3396 4.43869 41.7635 4.16338 42.2391 4.03022C42.7456 3.85676 43.2951 3.85676 43.8017 4.03022C44.2833 4.21085 44.6949 4.54135 44.9761 4.97356L46.4264 4.00969C45.925 3.30161 45.2082 2.77611 44.3838 2.51242C43.5134 2.23302 42.5748 2.25474 41.7182 2.57401C40.9332 2.78859 40.2249 3.22238 39.6756 3.82505C39.1834 4.38454 38.8641 5.07586 38.7565 5.81452C38.6498 6.64292 38.7337 7.48474 39.0016 8.27553C39.2401 9.07525 39.6595 9.80886 40.2271 10.4188C40.7707 10.9612 41.4649 11.3258 42.2186 11.4648Z" fill="white"/>
<path id="Vector_13" d="M51.0324 9.50607L52.6971 9.22919L52.1252 5.67083L54.2597 0L52.3397 0.30764L50.9813 3.90702L48.5609 0.933174L46.6409 1.24081L50.4503 5.9477L51.0324 9.50607Z" fill="white"/>
<path id="Vector_14" d="M57.906 3.54178L57.8607 4.83301L65.9443 5.11929L65.9896 3.82805L57.906 3.54178Z" fill="white"/>
<path id="Vector_15" d="M72.3465 10.2341C72.561 10.2341 72.7653 10.3161 72.9593 10.3469C73.6192 10.4471 74.2938 10.3509 74.8997 10.07C75.4834 9.78769 75.9886 9.36502 76.3704 8.83945C76.7892 8.2651 77.0912 7.61347 77.2589 6.92183C77.4319 6.25277 77.477 5.55682 77.3917 4.8709C77.3039 4.22281 77.0584 3.60643 76.6768 3.07634C76.282 2.54067 75.7384 2.13398 75.1142 1.90729C74.9175 1.83011 74.7163 1.76511 74.5117 1.71251L74.1032 1.59973L71.3354 0.89209L69.1601 9.47523L71.9278 10.1829L72.3465 10.2341ZM72.5815 2.78918L73.7151 3.07634L74.144 3.18912C74.3084 3.23433 74.4689 3.29267 74.624 3.3635C74.9564 3.51373 75.2269 3.77449 75.39 4.1018C75.567 4.44835 75.6647 4.8302 75.6759 5.21952C75.6971 5.64433 75.6523 6.06984 75.5432 6.48083C75.4446 6.88831 75.2863 7.27883 75.0734 7.63961C74.8754 7.97366 74.6112 8.26343 74.2972 8.49082C73.9977 8.69803 73.6394 8.80227 73.2759 8.78812C73.1039 8.77345 72.9332 8.74607 72.7653 8.70613L72.3364 8.60361L71.2027 8.31645L72.5815 2.78918Z" fill="white"/>
<path id="Vector_16" d="M80.3636 3.50977L77.2388 11.7957L78.7957 12.3876L81.9205 4.1017L80.3636 3.50977Z" fill="white"/>
<path id="Vector_17" d="M81.2829 10.5625C81.2111 11.1337 81.2598 11.7136 81.4259 12.2646C81.5838 12.7824 81.8483 13.261 82.2021 13.6695C82.5568 14.0919 82.9905 14.4403 83.4787 14.695C84.1557 15.0711 84.9217 15.2554 85.6949 15.2283C86.4109 15.1887 87.1012 14.947 87.6864 14.531C88.3222 14.0743 88.8375 13.4688 89.1878 12.7671C89.2158 12.6926 89.2499 12.6206 89.2899 12.5518L89.4022 12.2954L86.5834 10.8291L85.9911 11.9673L87.2268 12.6134C86.978 12.9495 86.6614 13.229 86.2975 13.4337C85.9834 13.5988 85.6299 13.6734 85.2762 13.6491C84.9168 13.6347 84.5663 13.5326 84.2549 13.3517C83.8219 13.1176 83.4668 12.7611 83.2336 12.3262C83.0131 11.9228 82.9238 11.4602 82.9783 11.0033C83.0395 10.4614 83.2023 9.93595 83.4583 9.45488C83.7137 8.95985 84.0602 8.51791 84.4796 8.15252C84.824 7.84943 85.2508 7.65669 85.7051 7.59885C86.1975 7.55871 86.69 7.67334 87.1145 7.92695C87.568 8.13248 87.9311 8.49711 88.1358 8.95241C88.3118 9.42024 88.3542 9.92815 88.2584 10.4189L89.8822 10.9828C90.1348 10.1282 90.088 9.21259 89.7495 8.38848C89.3202 7.51637 88.5963 6.82579 87.7069 6.44007C87.0601 6.09625 86.3343 5.93002 85.603 5.95813C84.8695 5.98809 84.1602 6.23017 83.5604 6.65538C82.8561 7.15806 82.2904 7.832 81.9162 8.61406C81.5804 9.21577 81.3653 9.87772 81.2829 10.5625Z" fill="white"/>
<path id="Vector_18" d="M92.8799 9.81396L87.9291 17.1479L89.3071 18.0858L94.2579 10.7518L92.8799 9.81396Z" fill="white"/>
<path id="Vector_19" d="M96.8985 14.6025L92.2209 20.1913L93.4976 21.268L98.1751 15.6793L100.299 17.4738L101.3 16.274L95.7648 11.6082L94.764 12.8079L96.8985 14.6025Z" fill="white"/>
<path id="Vector_20" d="M96.592 24.1396L98.3384 23.3294L100.555 25.8111L99.5334 27.4621L100.677 28.7542L105.447 20.8274L103.792 18.9609L95.4175 22.8578L96.592 24.1396ZM99.8091 22.6321L103.476 20.9299L101.433 24.4062L99.8091 22.6321Z" fill="white"/>
<path id="Vector_21" d="M104.17 34.0454L105.457 33.1737L103.343 30.005L109.389 25.9442L108.459 24.5598L101.127 29.482L104.17 34.0454Z" fill="white"/>
<path id="Vector_22" d="M105.732 37.0602L107.642 36.8244L108.99 39.9008L107.55 41.1724L108.245 42.7414L115.21 36.6706L114.189 34.3838L104.997 35.522L105.732 37.0602ZM109.256 36.6192L113.27 36.1168L110.206 38.7932L109.256 36.6192Z" fill="white"/>
<path id="Vector_23" d="M115.047 41.3776C114.203 41.199 113.328 41.2378 112.504 41.4904C111.846 41.651 111.226 41.9365 110.676 42.3313C110.207 42.6655 109.813 43.0953 109.521 43.5926C109.251 44.0577 109.08 44.5748 109.021 45.1103C108.957 45.6539 109.002 46.2047 109.154 46.7305C109.327 47.505 109.713 48.2154 110.267 48.7814C110.774 49.2972 111.42 49.6535 112.126 49.8069C112.887 49.9695 113.677 49.9378 114.424 49.7146L114.648 49.6532L114.924 49.5608L114.087 46.4844L112.851 46.8229L113.208 48.1764C112.798 48.2131 112.384 48.1643 111.993 48.0329C111.666 47.9178 111.377 47.7159 111.155 47.4484C110.934 47.1683 110.777 46.8426 110.696 46.4947C110.552 46.02 110.552 45.5132 110.696 45.0386C110.855 44.6284 111.128 44.2726 111.482 44.0131C111.922 43.6877 112.422 43.454 112.953 43.326C113.479 43.1678 114.031 43.1155 114.577 43.1722C115.034 43.2184 115.465 43.4046 115.813 43.7054C116.172 44.0441 116.421 44.4837 116.527 44.9667C116.678 45.4501 116.646 45.9726 116.436 46.4332C116.201 46.8669 115.846 47.2231 115.414 47.4587L116.099 49.0481C116.898 48.6609 117.54 48.0091 117.916 47.2023C118.259 46.3008 118.281 45.3082 117.978 44.3925C117.81 43.6837 117.458 43.0323 116.956 42.5056C116.443 41.9503 115.779 41.5581 115.047 41.3776Z" fill="white"/>
<path id="Vector_24" d="M111.105 57.3132L112.647 57.1389L112.197 53.0473L114.444 52.8012L114.822 56.1442L116.364 55.9699L115.997 52.6269L117.866 52.4115L118.325 56.4929L119.877 56.3185L119.234 50.5759L110.461 51.5604L111.105 57.3132Z" fill="white"/>
<path id="Vector_25" d="M111.125 60.0511L116.997 60.2767L110.972 63.8966L110.9 65.5887L119.724 65.9373L119.785 64.2453L113.913 64.0094L119.939 60.3896L120 58.6975L111.186 58.3489L111.125 60.0511Z" fill="white"/>
<path id="Vector_26" d="M115.179 67.2808C114.37 67.0903 113.528 67.0903 112.718 67.2808C111.997 67.4624 111.344 67.8507 110.839 68.3986C110.309 68.997 109.955 69.7322 109.818 70.5213C109.596 71.4088 109.667 72.3446 110.022 73.1875C110.382 73.9709 110.979 74.6205 111.727 75.0437L112.524 73.4849C112.087 73.2565 111.73 72.8985 111.503 72.4595C111.293 71.9637 111.25 71.413 111.38 70.8905C111.46 70.3992 111.688 69.9444 112.034 69.5881C112.365 69.268 112.785 69.0569 113.239 68.9831C113.775 68.8773 114.327 68.8773 114.863 68.9831C115.399 69.0807 115.91 69.2865 116.364 69.5881C116.748 69.8334 117.048 70.1914 117.222 70.6136C117.395 71.0795 117.424 71.5873 117.304 72.0698C117.217 72.6023 116.955 73.09 116.558 73.4542C116.166 73.7831 115.679 73.9772 115.169 74.0079L115.282 75.7512C116.137 75.666 116.943 75.3065 117.579 74.7257C118.243 74.0982 118.684 73.2699 118.836 72.3671C119.023 71.5875 118.991 70.7711 118.744 70.0086C118.502 69.301 118.058 68.6805 117.467 68.2243C116.791 67.7303 116.006 67.4067 115.179 67.2808Z" fill="white"/>
<path id="Vector_27" d="M108.163 77.074L107.571 78.6634L110.941 79.9248L114.791 84.5906L115.476 82.755L113.025 79.7915L116.803 79.1557L117.488 77.3303L111.534 78.3353L108.163 77.074Z" fill="white"/>
<path id="Vector_28" d="M108.806 85.3862L104.575 92.3081L105.672 92.984L109.903 86.062L108.806 85.3862Z" fill="white"/>
<path id="Vector_29" d="M97.3171 95.03L97.0312 95.3478C96.8841 95.4959 96.7508 95.6572 96.6329 95.8297C96.2154 96.3511 95.966 96.9878 95.918 97.6551C95.869 98.3059 95.985 98.9585 96.255 99.5522C96.5478 100.198 96.9642 100.78 97.4806 101.265C97.9857 101.762 98.5823 102.155 99.2372 102.424C99.842 102.67 100.499 102.758 101.147 102.68C101.806 102.594 102.426 102.32 102.934 101.89L103.394 101.46L103.7 101.152L105.671 99.101L99.2984 92.9482L97.3171 95.03ZM102.567 100.065L102.25 100.383C102.128 100.507 101.994 100.621 101.852 100.721C101.555 100.935 101.195 101.043 100.83 101.029C100.445 101.012 100.069 100.911 99.7274 100.731C99.3534 100.532 99.0096 100.28 98.7061 99.9829C98.3988 99.6835 98.1403 99.3375 97.9401 98.9575C97.7438 98.6209 97.6187 98.2475 97.5725 97.8603C97.5456 97.4984 97.639 97.1377 97.838 96.8348C97.9297 96.6879 98.0358 96.5504 98.1546 96.4246L98.4508 96.0964L99.2576 95.2555L103.343 99.2036L102.567 100.065Z" fill="white"/>
<path id="Vector_30" d="M93.3778 98.9073L92.0966 99.9746L97.7307 106.793L99.0119 105.726L93.3778 98.9073Z" fill="white"/>
<path id="Vector_31" d="M92.3436 102.988C91.8786 102.647 91.3509 102.403 90.7912 102.27C90.266 102.157 89.7231 102.157 89.198 102.27C88.6622 102.374 88.1522 102.583 87.6967 102.885C87.0365 103.289 86.4994 103.867 86.1443 104.556C85.8281 105.191 85.6937 105.901 85.7562 106.607C85.8395 107.388 86.1093 108.138 86.5426 108.792L86.6754 108.986C86.7571 109.089 86.8082 109.171 86.849 109.212L89.5146 107.479L88.8099 106.392L87.6354 107.151C87.4708 106.769 87.3907 106.357 87.4006 105.941C87.4052 105.595 87.5079 105.257 87.6967 104.967C87.8918 104.667 88.1541 104.418 88.4627 104.239C88.8605 103.976 89.3247 103.834 89.8006 103.828C90.2591 103.843 90.7032 103.992 91.0772 104.259C91.5165 104.579 91.888 104.983 92.17 105.449C92.4952 105.883 92.7313 106.378 92.8644 106.905C92.9565 107.356 92.9102 107.824 92.7317 108.248C92.5075 108.69 92.15 109.049 91.7104 109.274C91.299 109.569 90.7932 109.7 90.2908 109.643C89.7972 109.574 89.3351 109.36 88.9631 109.027L87.666 110.156C88.2767 110.804 89.0923 111.221 89.9742 111.335C90.9307 111.395 91.8779 111.115 92.6499 110.545C93.2706 110.15 93.7776 109.598 94.1206 108.945C94.456 108.284 94.6011 107.542 94.5394 106.802C94.4487 105.937 94.1432 105.108 93.6508 104.392C93.301 103.85 92.8584 103.375 92.3436 102.988Z" fill="white"/>
<path id="Vector_32" d="M83.2944 105.626L81.8004 106.363L85.692 114.315L87.1861 113.578L83.2944 105.626Z" fill="white"/>
<path id="Vector_33" d="M78.5766 107.766L77.014 108.351L79.5468 115.19L76.9425 116.165L77.4838 117.631L84.2549 115.098L83.7137 113.632L81.1094 114.606L78.5766 107.766Z" fill="white"/>
<path id="Vector_34" d="M72.99 109.643L72.8266 111.571L69.5789 112.278L68.6393 110.597L66.9644 110.966L71.4683 119.046L73.899 118.513L74.6649 109.284L72.99 109.643ZM72.3772 117.242L70.3347 113.704L72.6428 113.191L72.3772 117.242Z" fill="white"/>
<path id="Vector_35" d="M60.7959 112.934L64.5849 112.647L65.1261 119.928L66.7908 119.805L66.1372 110.966L60.6835 111.376L60.7959 112.934Z" fill="white"/>
<path id="Vector_36" d="M56.5472 113.057L53.2382 112.74L52.8604 110.842L51.1446 110.678L52.9727 119.754L55.4442 120L58.9881 111.448L57.2825 111.283L56.5472 113.057ZM54.3821 118.318L53.565 114.339L55.9242 114.575L54.3821 118.318Z" fill="white"/>
<path id="Vector_37" d="M49.7558 111.335C49.501 110.872 49.1532 110.467 48.7345 110.145C48.2939 109.826 47.799 109.589 47.2741 109.448C46.5286 109.243 45.742 109.243 44.9966 109.448C44.3046 109.649 43.6821 110.039 43.1991 110.576C42.6962 111.165 42.3455 111.869 42.1778 112.627C42.1778 112.627 42.1778 112.73 42.1778 112.863L42.1166 113.14L45.1804 113.94L45.5072 112.688L44.1591 112.34C44.3221 111.948 44.5698 111.598 44.8843 111.314C45.1455 111.087 45.4631 110.935 45.8034 110.873C46.1451 110.826 46.4929 110.85 46.8247 110.945C47.3016 111.069 47.736 111.32 48.0809 111.673C48.378 112.021 48.5663 112.449 48.6222 112.904C48.6805 113.447 48.6354 113.997 48.4894 114.524C48.3663 115.06 48.1371 115.566 47.8154 116.011C47.5639 116.381 47.2083 116.666 46.7941 116.831C46.3229 116.986 45.815 116.986 45.3438 116.831C44.8517 116.718 44.4168 116.43 44.1183 116.021C43.8412 115.609 43.6887 115.124 43.6792 114.627L41.9633 114.432C41.9035 115.322 42.1525 116.207 42.668 116.934C43.2709 117.683 44.117 118.194 45.0579 118.38C45.7664 118.575 46.5144 118.575 47.223 118.38C47.9383 118.187 48.5834 117.792 49.0818 117.241C49.6523 116.592 50.0525 115.809 50.246 114.965C50.436 114.299 50.495 113.603 50.4196 112.914C50.3116 112.347 50.0854 111.808 49.7558 111.335Z" fill="white"/>
<path id="Vector_38" d="M37.1223 105.931L36.5095 107.366L40.2679 108.987L39.3691 111.078L36.2848 109.745L35.6721 111.181L38.7564 112.514L38.021 114.257L34.2525 112.637L33.6397 114.073L38.93 116.349L42.4126 108.207L37.1223 105.931Z" fill="white"/>
<path id="Vector_39" d="M34.7121 104.577L31.6176 109.602L31.4542 102.557L30.0142 101.665L25.3775 109.191L26.8073 110.084L29.9018 105.069L30.0754 112.114L31.5052 113.006L36.1521 105.479L34.7121 104.577Z" fill="white"/>
<path id="Vector_40" d="M26.4806 104.556C27.042 103.937 27.4543 103.197 27.6857 102.393C27.8951 101.676 27.8951 100.915 27.6857 100.198C27.4258 99.438 26.963 98.7642 26.3478 98.25C25.6849 97.6253 24.8403 97.2299 23.9376 97.1218C23.0838 97.0474 22.2286 97.2486 21.4967 97.6962L22.4465 99.1625C22.8785 98.886 23.3849 98.7499 23.8967 98.7728C24.4289 98.8287 24.9279 99.0594 25.3163 99.4291C25.6976 99.7466 25.9752 100.172 26.1129 100.65C26.2352 101.096 26.2138 101.57 26.0516 102.003C25.8639 102.517 25.5756 102.987 25.204 103.387C24.8514 103.808 24.4214 104.156 23.9376 104.413C23.5278 104.621 23.065 104.699 22.6099 104.639C22.1216 104.562 21.6687 104.337 21.3128 103.993C20.8968 103.651 20.6028 103.183 20.4754 102.659C20.3883 102.154 20.4597 101.635 20.6797 101.173L19.1171 100.414C18.7654 101.198 18.6759 102.076 18.8617 102.916C19.077 103.801 19.5714 104.592 20.2711 105.172C20.8395 105.716 21.5462 106.092 22.3137 106.259C23.0463 106.391 23.8013 106.309 24.489 106.023C25.259 105.699 25.9415 105.196 26.4806 104.556Z" fill="white"/>
<path id="Vector_41" d="M21.4251 93.6148L20.3323 92.3125L17.585 94.6301L11.6411 95.6863L12.8871 97.1835L16.6659 96.5067L15.3484 100.127L16.5944 101.624L18.6676 95.9324L21.4251 93.6148Z" fill="white"/>
<path id="Vector_42" d="M9.88572 82.9821L8.75763 83.6038L12.6494 90.7236L13.7775 90.1019L9.88572 82.9821Z" fill="white"/>
<circle id="Ellipse 1" cx="60" cy="60" r="7" fill="#3FABE3"/>
</g>
</svg>
